<svg xmlns="http://www.w3.org/2000/svg" viewBox="0 0 24 24" fill="currentColor">
    <path d="M12 .5C5.65.5.5 5.65.5 12c0 5.1 3.29 9.4 7.86 10.94.58.1.79-.25.79-.56
    0-.28-.01-1.02-.02-2-3.2.7-3.88-1.54-3.88-1.54-.53-1.34-1.3-1.7-1.3-1.7-1.06-.72.08-.7.08-.7
    1.17.08 1.78 1.2 1.78 1.2 1.04 1.78 2.74 1.27 3.41.97.1-.75.41-1.27.75-1.56-2.55-.3-5.23-1.28-5.23-5.7
    0-1.26.45-2.29 1.2-3.1-.12-.3-.52-1.52.12-3.17 0 0 .98-.31 3.2 1.18a11.1 11.1 0 012.92-.39c.99 0 1.99.13
    2.92.39 2.22-1.5 3.2-1.18 3.2-1.18.64 1.65.24 2.87.12 3.17.75.81 1.2 1.84 1.2 3.1
    0 4.43-2.69 5.4-5.26 5.7.42.36.8 1.09.8 2.2 0 1.59-.01 2.87-.01 3.26
    0 .31.21.67.8.56A10.99 10.99 0 0023.5 12c0-6.35-5.15-11.5-11.5-11.5z"/>
</svg>
